<?xml version="1.0" encoding="UTF-8" standalone="no"?>
<!-- Created with Inkscape (http://www.inkscape.org/) -->

<svg
   xmlns:dc="http://purl.org/dc/elements/1.1/"
   xmlns:cc="http://creativecommons.org/ns#"
   xmlns:rdf="http://www.w3.org/1999/02/22-rdf-syntax-ns#"
   xmlns:svg="http://www.w3.org/2000/svg"
   xmlns="http://www.w3.org/2000/svg"
   xmlns:sodipodi="http://sodipodi.sourceforge.net/DTD/sodipodi-0.dtd"
   xmlns:inkscape="http://www.inkscape.org/namespaces/inkscape"
   id="svg5880"
   version="1.1"
   inkscape:version="0.91 r13725"
   width="393.75"
   height="461.37415"
   viewBox="0 0 393.75001 461.37415"
   sodipodi:docname="R.svg">
  <metadata
     id="metadata5886">
    <rdf:RDF>
      <cc:Work
         rdf:about="">
        <dc:format>image/svg+xml</dc:format>
        <dc:type
           rdf:resource="http://purl.org/dc/dcmitype/StillImage" />
        <dc:title></dc:title>
      </cc:Work>
    </rdf:RDF>
  </metadata>
  <defs
     id="defs5884" />
  <sodipodi:namedview
     pagecolor="#ffffff"
     bordercolor="#666666"
     borderopacity="1"
     objecttolerance="10"
     gridtolerance="10"
     guidetolerance="10"
     inkscape:pageopacity="0"
     inkscape:pageshadow="2"
     inkscape:window-width="1276"
     inkscape:window-height="761"
     id="namedview5882"
     showgrid="false"
     fit-margin-top="0"
     fit-margin-left="0"
     fit-margin-right="0"
     fit-margin-bottom="0"
     inkscape:zoom="0.42028659"
     inkscape:cx="320.71539"
     inkscape:cy="286.20275"
     inkscape:window-x="0"
     inkscape:window-y="18"
     inkscape:window-maximized="0"
     inkscape:current-layer="svg5880" />
  <path
     style="fill:#000000"
     d="m 37.22286,460.72228 c -0.68633,-1.32801 -0.26701,-17.1712 0.77713,-29.3623 0.52329,-6.1098 0.35476,-9.8801 -0.46425,-10.38627 -2.0043,-1.23873 -1.50977,-3.50053 0.58926,-2.69505 1.99287,0.76472 2.23281,-0.18505 2.07186,-8.20105 -0.0511,-2.54321 0.76722,-8.44946 1.81841,-13.125 1.0512,-4.67555 2.48555,-11.03224 3.18745,-14.12599 0.7019,-3.09375 1.47649,-6.75 1.72132,-8.125 0.24482,-1.375 0.99162,-5.59375 1.65955,-9.375 1.80955,-10.24412 10.85899,-46.04675 13.26986,-52.5 1.15579,-3.09375 2.42347,-7.03125 2.81705,-8.75 0.39358,-1.71875 1.4478,-4.25423 2.3427,-5.63437 0.89491,-1.38017 1.61209,-3.63017 1.59376,-5 -0.0399,-2.98004 4.72051,-19.99048 6.55216,-23.41296 2.34322,-4.37834 2.60838,-1.26261 0.50755,5.96399 -1.13554,3.90613 -1.76332,7.40335 -1.39507,7.7716 0.82393,0.82394 1.08593,0.062 5.00119,-14.54416 1.72949,-6.45199 3.93349,-12.63949 4.89776,-13.75 0.96428,-1.1105 1.47241,-2.80053 1.12918,-3.7556 -0.36765,-1.02301 -0.0696,-1.39383 0.72539,-0.90249 2.05024,1.26713 3.35056,-1.99202 12.02026,-30.12767 4.40357,-14.29084 11.18607,-35.26459 15.07223,-46.60834 3.88616,-11.34375 7.82765,-23.15625 8.75885,-26.25 0.93121,-3.09375 3.79198,-11.53125 6.35726,-18.75 2.56529,-7.21875 5.61694,-15.80792 6.78145,-19.08706 1.16452,-3.27914 2.48124,-6.32602 2.92607,-6.77084 0.44481,-0.44483 0.80876,-1.31583 0.80876,-1.93555 0,-1.13485 -7.05049,3.23981 -9.375,5.81696 -1.14075,1.26475 -3.3178,2.85332 -11.27393,8.22649 -1.52697,1.03125 -6.955,5.02971 -12.06225,8.88548 -5.10725,3.85576 -13.38678,9.06856 -18.39894,11.58398 -5.01217,2.51544 -10.89095,5.83089 -13.06396,7.36767 -2.173,1.53678 -5.07592,3.48344 -6.45092,4.32593 -13.32653,8.16533 -15.625,9.91275 -15.625,11.87898 0,1.21437 -0.51662,2.20796 -1.14805,2.20796 -0.63143,0 -2.32883,1.91055 -3.77201,4.24566 -3.71539,6.01163 -8.20408,8.56869 -14.95792,8.52104 C 25.7935,174.29522 12.6841,170.83286 9.90158,168.3427 8.81619,167.37136 7.36737,166.57662 6.68197,166.57662 5.01935,166.57662 0,161.16367 0,159.37067 c 0,-0.7809 0.71205,-1.86965 1.58233,-2.41944 0.87028,-0.54979 4.28964,-4.38891 7.59858,-8.53138 6.02711,-7.54537 30.44078,-32.14692 40.60848,-40.92097 2.97791,-2.56975 6.57911,-4.67226 8.00267,-4.67226 2.48645,0 7.84056,-3.500159 18.64292,-12.187499 2.77835,-2.23437 5.56083,-4.0625 6.18329,-4.0625 0.62245,0 0.99111,-0.67756 0.81923,-1.50568 -0.17187,-0.82813 0.35779,-1.53125 1.17704,-1.5625 0.81924,-0.0312 4.19424,-2.07933 7.5,-4.55129 3.30575,-2.47196 9.38546,-6.67126 13.51046,-9.33178 4.125,-2.66052 7.78125,-5.13801 8.125,-5.50553 0.34375,-0.36752 2.03125,-0.81361 3.75,-0.99131 1.71875,-0.1777 4.09366,-1.48623 5.27758,-2.907852 1.18392,-1.421622 2.69192,-2.251437 3.35111,-1.844033 0.65919,0.407402 2.7258,-0.674689 4.59245,-2.404646 1.86665,-1.729959 3.85784,-3.145379 4.42485,-3.145379 2.41757,0 12.35401,-8.168871 12.35401,-10.156391 0,-2.198137 4.20715,-4.359716 7.30995,-3.755754 0.92672,0.180387 2.61422,-0.41246 3.75,-1.317439 3.85369,-3.070593 7.64679,-4.770416 10.64504,-4.770416 1.64389,0 3.68915,-0.84375 4.54501,-1.875 0.85586,-1.03125 2.08991,-1.875 2.74234,-1.875 0.65242,0 2.00788,-0.821654 3.01212,-1.825897 1.00425,-1.004243 3.9172,-2.159974 6.47323,-2.568292 2.55602,-0.408317 5.62405,-1.274164 6.81785,-1.924102 1.1938,-0.64994 3.09407,-1.181709 4.22283,-1.181709 1.12878,0 4.93328,-1.626749 8.45447,-3.614996 3.52367,-1.989652 12.58432,-5.084862 20.15216,-6.884185 7.5625,-1.7980543 16.39805,-4.1567293 19.63455,-5.2415003 3.2365,-1.084773 6.49551,-1.594714 7.24225,-1.133204 0.74675,0.46151 2.0362,0.297571 2.86545,-0.364309 1.64876,-1.315967 26.15332,-4.17264397 37.13275,-4.32883697 10.99485,-0.156413 41.2514,1.63459197 48.75,2.88570297 3.78125,0.630888 8.84375,1.397124 11.25,1.702749 14.80097,1.879913 27.52544,7.1461233 35.88469,14.8514083 2.95092,2.720063 5.36531,6.016997 5.36531,7.32652 0,3.793212 -3.46525,11.050651 -5.27641,11.050651 -0.90969,0 -3.61027,1.589259 -6.00129,3.531685 -4.96786,4.035819 -8.48418,5.704874 -11.31236,5.369535 -1.08078,-0.128149 -4.5421,2.035402 -7.69182,4.807891 -3.47515,3.058951 -6.97386,5.040889 -8.89866,5.040889 -1.74456,0 -3.51956,0.5625 -3.94446,1.25 -0.4249,0.6875 -2.08541,1.25 -3.69004,1.25 -1.60462,0 -3.19715,0.703125 -3.53895,1.5625 -0.80296,2.0188 -7.4359,5.27729 -14.95851,7.34851 -3.26563,0.89913 -5.9375,2.07448 -5.9375,2.61188 0,0.53741 -0.48801,0.97711 -1.08448,0.97711 -0.59646,0 -4.85923,2.53125 -9.47282,5.625 -4.61359,3.09375 -9.16829,5.625 -10.12155,5.625 -0.95325,0 -2.33429,1.12316 -3.06896,2.49592 -0.73468,1.37276 -3.56698,3.63418 -6.29399,5.0254 -2.72701,1.39122 -4.9582,3.24053 -4.9582,4.10958 0,0.86904 -1.61547,2.53436 -3.58994,3.70071 -1.97446,1.16634 -7.27502,5.787629 -11.77901,10.269499 -4.50399,4.48189 -8.79476,8.14889 -9.53506,8.14889 -0.74029,0 -1.34599,1.0932 -1.34599,2.42932 0,1.37367 -1.62958,3.39195 -3.75,4.64452 -2.0625,1.21835 -3.75,2.52848 -3.75,2.91141 0,0.38294 -1.96875,1.75649 -4.375,3.05234 -5.3431,2.87745 -5.43978,4.22456 -0.63361,8.82916 6.84156,6.55464 8.61045,11.75341 10.10668,29.70373 2.23054,26.75957 2.40571,46.47987 0.44643,50.25639 -1.20734,2.32714 -1.35006,4.17933 -0.4953,6.42754 1.72516,4.53751 1.55629,6.09674 -0.47749,4.40884 -1.32975,-1.10359 -1.96801,-0.42146 -3.07329,3.28445 -1.465,4.91205 -3.34025,16.47671 -2.9456,18.16544 0.12702,0.54347 -0.35502,2.08301 -1.0712,3.42119 -0.97432,1.82056 -0.68045,4.24653 1.16739,9.63686 4.46749,13.0321 5.78414,16.26464 7.43503,18.25385 0.89715,1.081 1.27909,2.53515 0.84875,3.23146 -0.43034,0.6963 1.22423,4.98251 3.67685,9.52492 4.23919,7.85131 4.31876,8.21528 1.61231,7.37476 -4.49009,-1.39447 -8.74639,-4.81972 -17.14327,-13.79602 -9.3585,-10.00427 -14.1664,-16.4903 -17.91042,-24.16176 -1.5363,-3.14787 -3.21513,-5.9109 -3.73076,-6.14006 -0.51562,-0.22918 -0.9375,-1.50243 -0.9375,-2.82946 0,-1.32704 -0.54151,-3.38954 -1.20335,-4.58334 -1.78439,-3.21859 -10.79314,-32.18286 -12.9219,-41.54554 -2.58223,-11.35716 -5.71945,-26.2326 -6.38852,-30.29187 -0.30977,-1.87929 -0.85725,-3.89268 -1.21665,-4.47419 -0.35939,-0.58153 -1.26254,-4.95018 -2.00699,-9.70813 -1.92393,-12.29632 -2.31647,-13.25652 -5.06299,-12.38481 -1.29184,0.41001 -5.30948,0.95019 -8.9281,1.20041 -5.89021,0.40729 -6.67195,0.80128 -7.46368,3.76168 -0.4864,1.81871 -1.41258,3.97391 -2.05818,4.78932 -0.64562,0.81543 -1.87607,3.73259 -2.73434,6.48259 -0.85829,2.75 -2.29281,6.6875 -3.18782,8.75 -0.89503,2.0625 -3.64028,9.87886 -6.10055,17.3697 -2.46029,7.49084 -4.9777,14.24084 -5.59426,15 -0.61656,0.75916 -2.27333,5.1343 -3.68175,9.72251 -1.4084,4.58823 -3.1218,9.36948 -3.80755,10.625 -0.68575,1.25554 -2.18942,5.48182 -3.3415,9.39174 -1.15207,3.90991 -3.05405,8.13869 -4.2266,9.39728 -1.17255,1.25858 -2.46546,3.40331 -2.87315,4.76606 -0.40767,1.36274 -1.95827,5.57146 -3.44577,9.35271 -1.48749,3.78125 -3.2256,8.6188 -3.86246,10.75011 -0.63685,2.13132 -2.27977,4.89038 -3.6509,6.13124 -1.37115,1.24086 -2.49299,2.87654 -2.49299,3.63483 0,1.49602 -6.10566,13.46347 -7.3895,14.48382 -0.43251,0.34375 -1.57491,2.3125 -2.53867,4.375 l -1.75229,3.75 -0.72275,-3.68194 -0.72276,-3.68192 -1.53522,3.36942 c -0.84436,1.85319 -2.10977,3.36944 -2.81201,3.36944 -0.70224,0 -1.2768,0.84375 -1.2768,1.875 0,1.03125 -0.5625,1.875 -1.25,1.875 -0.6875,0 -1.25,1.38646 -1.25,3.08102 0,1.8017 -1.03806,3.63658 -2.5,4.41898 -2.14378,1.14731 -2.5,0.95061 -2.5,-1.38045 0,-2.34428 -0.39919,-2.13018 -2.90043,1.55559 -1.59522,2.35071 -3.95634,7.21045 -5.24692,10.79943 -1.29058,3.58899 -2.87651,6.52543 -3.52428,6.52543 -1.68535,0 -4.49179,4.0018 -4.53862,6.47177 -0.0219,1.15323 -1.30537,3.14619 -2.85225,4.42882 -3.11388,2.58192 -7.1875,9.5677 -7.1875,12.32571 0,0.97554 -0.4495,1.7737 -0.99889,1.7737 -0.54939,0 -1.72187,2.10937 -2.60552,4.6875 -4.39216,12.81449 -5.49261,15.10087 -6.99136,14.52575 -0.88834,-0.34089 -1.91252,0.65305 -2.34788,2.27855 -1.3745,5.13196 -0.74227,6.73282 1.13866,2.8832 1.6174,-3.31026 1.75936,-3.38355 1.21069,-0.625 -0.34186,1.71875 -0.62924,3.54687 -0.63863,4.0625 -0.009,0.51562 -0.7905,0.9375 -1.73582,0.9375 -0.94531,0 -2.14889,1.82812 -2.67463,4.0625 -1.1657,4.95425 -0.93553,4.28562 -3.49506,10.15265 -1.16136,2.66209 -2.11156,5.86156 -2.11156,7.10994 0,1.24837 -0.8039,5.82031 -1.78645,10.15985 -0.98255,4.33953 -1.96693,9.57756 -2.1875,11.64006 -0.41595,3.88934 -1.37858,5.61384 -5.08855,9.11576 -1.20312,1.13567 -2.1875,2.78358 -2.1875,3.66204 0,0.87846 -0.65365,1.45657 -1.45255,1.2847 -0.85927,-0.18486 -2.13798,2.96585 -3.13072,7.71405 -1.73992,8.32192 -2.29999,9.72375 -3.19387,7.99411 z m 6.13104,-21.88004 c -0.39904,-0.99716 -0.69523,-0.70097 -0.75521,0.75522 -0.0543,1.3177 0.24116,2.05598 0.65652,1.64062 0.41537,-0.41536 0.45977,-1.4935 0.0987,-2.39584 z M 67.23471,310.15573 c -0.31206,-0.93618 -0.87868,-0.36956 -1.32069,1.32069 -0.54372,2.07919 -0.38104,2.56723 0.54655,1.63964 0.72637,-0.72638 1.07474,-2.05853 0.77414,-2.96033 z m 4.11813,-13.21706 c 2.48682,-11.37889 2.58972,-12.47749 0.70216,-7.49715 -2.14821,5.66806 -3.89488,14.37402 -2.6327,13.12215 0.4924,-0.48837 1.36114,-3.01963 1.93054,-5.625 z M 211.875,103.49429 c 48.99088,-30.026399 56.72195,-35.064359 57.69345,-37.596049 0.38446,-1.00189 1.45361,-1.82162 2.37589,-1.82162 0.92227,0 3.08258,-1.26562 4.80071,-2.8125 3.56196,-3.206951 6.16911,-5.242964 20.12995,-15.720149 13.89486,-10.427672 17.95066,-14.217195 17.229,-16.09783 -0.34181,-0.890737 0.18441,-1.619521 1.16937,-1.619521 0.98497,0 3.11194,-1.40625 4.72663,-3.125 l 2.93579,-3.125 -3.6554,0.02459 c -4.9547,0.03334 -20.2631,2.93028 -32.29284,6.111064 -5.4381,1.437895 -11.17053,2.614349 -12.73874,2.614349 -1.5682,0 -3.1574,0.495336 -3.53157,1.100747 -0.37417,0.605412 -1.95423,1.398633 -3.51127,1.762715 -1.55703,0.364082 -7.61222,2.430018 -13.45597,4.590969 -5.84375,2.160953 -14,5.142296 -18.125,6.62521 -4.125,1.482913 -8.20645,3.384791 -9.0699,4.226397 -0.86345,0.841605 -2.8322,1.92535 -4.375,2.408323 -1.5428,0.482973 -5.19963,2.518274 -8.12625,4.522892 -4.6285,3.170318 -5.14668,3.970783 -3.98074,6.149354 2.28754,4.27431 4.67733,4.09193 16.13463,-1.231359 11.6778,-5.425738 12.5578,-5.722275 12.51656,-4.217748 -0.0141,0.515625 -5.34631,3.46875 -11.8493,6.562497 -9.8699,4.69554 -11.82786,6.10273 -11.8493,8.51619 -0.0141,1.59015 -1.4908,6.09015 -3.28149,10 -1.79067,3.90984 -4.5526,9.92131 -6.1376,13.35881 -1.58501,3.4375 -3.21849,7.093749 -3.62996,8.124999 -0.41149,1.03125 -1.87918,3.74304 -3.26156,6.0262 -1.38238,2.28316 -1.79942,3.73529 -0.92675,3.22695 C 198.661,111.57143 205,107.70796 211.875,103.49429 Z M 267.5,42.532152 c 1.32005,-1.463237 10,-4.524878 10,-3.527257 0,0.577889 -1.35399,1.390536 -3.00888,1.805885 -1.65487,0.415348 -4.0455,1.128451 -5.3125,1.584672 -1.26698,0.456221 -2.02237,0.517736 -1.67862,0.1367 z m 13.8953,-5.267496 c 0.42085,-0.420845 2.63175,-1.300501 4.91312,-1.95479 2.28138,-0.654289 3.62339,-0.709556 2.98227,-0.122812 -1.32704,1.214466 -9.06965,3.251871 -7.89539,2.077602 z M 294.375,33.17198 c 1.84497,-1.87832 8.125,-3.12982 8.125,-1.619174 0,0.700599 -1.079,1.273815 -2.39776,1.273815 -1.31878,0 -3.42815,0.364037 -4.6875,0.808974 -1.54534,0.545972 -1.88336,0.395248 -1.03974,-0.463615 z m 11.875,-2.962384 c 0,-0.623136 1.125,-1.132975 2.5,-1.132975 1.375,0 2.5,0.215645 2.5,0.479211 0,0.263565 -1.125,0.773405 -2.5,1.132975 -1.375,0.35957 -2.5,0.143926 -2.5,-0.479211 z M 33.75,444.07662 c 0,-0.6875 0.5957,-1.25 1.32377,-1.25 0.72808,0 0.97613,0.5625 0.55123,1.25 -0.4249,0.6875 -1.02059,1.25 -1.32377,1.25 -0.30317,0 -0.55123,-0.5625 -0.55123,-1.25 z m 2.58786,-30.9375 c -0.0483,-2.23438 0.47464,-4.0625 1.16214,-4.0625 1.48397,0 1.48397,2.17162 0,5.625 -0.90026,2.09502 -1.08852,1.84191 -1.16214,-1.5625 z"
     id="path5890"
     inkscape:connector-curvature="0"
     sodipodi:nodetypes="sssscsssssssssssssssssssscsssssssssscsssssssssccssssssssssssssssssssssssssssssssssssssssssssssssssssssssscsssssssscsssscssssssssssssscsssssscccsssssssssscsssssssscsssssssssssccsccsssssssssssssssscsssssssssssscscsscsssssssssssssssssssssssssssssss" />
</svg>
